<svg xmlns="http://www.w3.org/2000/svg" width="85.500" height="100.500" viewBox="0 0 85.500 100.500" fill="none">
  <path d="M 76.071 3.63 C 76.714 1.061 79.314 -0.499 81.878 0.145 C 84.442 0.79 85.998 3.395 85.355 5.964 C 83.309 14.137 78.632 34.649 73.121 52.922 C 69.846 63.779 66.669 76.825 59.209 85.774 C 57.58 87.728 54.809 90.304 51.013 90.064 C 47.846 89.864 45.654 88.004 44.317 85.962 C 40.419 80.001 40.838 71.431 40.553 64.657 C 40.353 59.909 40.778 50.507 39.326 50.337 C 37.875 50.168 33.861 64.878 31.504 72.141 C 29.326 78.853 26.889 85.944 24.057 91.147 C 21.243 96.316 16.441 101.982 9.843 100.147 C 3.415 98.358 1.289 91.117 0.513 85.253 C -0.338 78.819 -0.048 70.725 0.782 62.583 C 2.444 46.271 6.417 28.451 9.096 20.504 C 9.942 17.995 12.657 16.647 15.162 17.495 L 15.393 17.579 C 17.748 18.512 18.984 21.142 18.165 23.573 C 13.945 36.386 11.669 50.169 10.305 63.556 C 10.075 65.816 7.381 90.323 12.337 90.869 C 16.484 91.326 21.65 71.489 22.401 69.176 C 24.54 62.582 26.707 55.432 28.909 50.085 C 30.825 45.429 33.946 38.575 39.965 38.783 C 45.637 39.087 48.017 44.592 48.913 49.431 C 49.71 53.736 49.908 59.271 50.117 64.254 C 50.328 69.268 50.062 79.511 51.839 79.652 C 53.616 79.793 60.932 60.177 63.957 50.147 C 69.38 32.166 73.952 12.093 76.071 3.63 Z" fill="currentColor" fill-rule="nonzero"/>
</svg>
