<svg xmlns="http://www.w3.org/2000/svg" width="612.510" height="150.194" viewBox="0 0 612.510 150.194" fill="none">
  <path d="M 45.832 11.474 C 47.611 8.802 51.219 8.078 53.891 9.857 C 56.563 11.637 57.287 15.245 55.508 17.917 C 47.746 29.573 32.789 58.071 22.464 85.211 C 17.296 98.795 13.433 111.669 12.118 121.727 C 11.599 125.695 10.038 135.304 14.514 137.943 C 18.111 140.064 23.95 133.377 25.914 131.316 C 32.296 124.616 39.257 114.406 46.362 103.47 C 53.31 92.776 60.409 81.363 66.728 73.104 C 71.619 66.71 79.462 56.556 88.811 59.585 C 96.915 62.589 97.67 72.018 97.09 79.4 C 96.484 87.105 94.282 96.709 92.28 105.671 C 90.21 114.943 88.342 123.578 87.975 130.226 C 87.856 132.393 87.37 136.429 88.994 138.275 C 91.438 141.05 101.514 128.193 102.788 126.695 C 131.398 93.055 150.819 51.537 172.127 13.226 C 173.687 10.421 177.226 9.411 180.032 10.971 C 182.837 12.531 183.846 16.071 182.286 18.876 C 160.597 57.871 140.762 99.989 111.644 134.227 C 105.841 141.049 95.842 152.908 85.478 149.417 C 77.176 146.62 75.952 137.13 76.367 129.586 C 76.797 121.784 78.925 112.134 80.935 103.137 C 81.621 100.066 89.689 72.937 85.028 70.855 C 79.716 68.483 58.158 106.651 56.11 109.803 C 49.08 120.624 41.57 131.735 34.331 139.334 C 27.933 146.051 18.085 153.544 8.61 147.959 C -0.764 142.434 -0.642 129.649 0.591 120.22 C 2.081 108.821 6.319 94.954 11.599 81.077 C 22.169 53.294 37.497 23.989 45.832 11.474 Z" fill="currentColor" fill-rule="nonzero"/>
  <path d="M 180.957 46.94 C 187.808 40.032 197.295 35.192 207.218 39.901 C 223.405 47.581 215.944 67.894 207.681 78.532 C 199.95 88.485 187.444 98.307 170.463 105.343 C 170.505 112.931 171.967 122.347 179.14 126.461 C 188.215 131.667 199.62 127.922 208.333 123.648 C 207.534 111.488 210.791 99.075 215.421 87.93 C 219.95 77.028 226.371 66.696 233.675 59.93 C 240.8 53.329 250.623 48.68 260.27 54.262 C 270.344 60.091 269.358 72.352 265.483 81.703 C 261.355 91.668 253.11 102.734 243.235 112.421 C 236.616 118.914 229.062 124.984 221.19 129.81 C 222.439 133.508 224.508 135.933 227.173 137.235 C 242.604 144.774 258.764 118.768 264.696 108.984 C 266.36 106.239 269.934 105.363 272.679 107.027 C 275.424 108.691 276.301 112.266 274.636 115.011 C 264.875 131.112 244.526 158.652 222.069 147.681 C 216.512 144.965 212.959 140.512 210.846 135.307 C 199.173 140.53 185.037 143.247 173.355 136.545 C 163.731 131.024 159.819 120.435 159.007 109.699 C 159.001 109.613 158.996 109.525 158.99 109.438 C 154.981 110.654 150.774 111.721 146.37 112.609 C 143.223 113.244 140.157 111.207 139.522 108.06 C 138.888 104.914 140.925 101.848 144.071 101.214 C 149.501 100.119 154.568 98.739 159.273 97.141 C 161.181 79.328 168.194 59.81 180.957 46.94 Z M 254.448 64.324 C 251.574 62.661 247.44 63.025 241.575 68.458 C 235.889 73.726 230.285 82.45 226.156 92.39 C 222.754 100.581 220.537 109.159 219.987 116.707 C 225.261 113.029 230.392 108.734 235.094 104.123 C 244.303 95.089 251.415 85.287 254.744 77.254 C 256.17 73.811 258.795 66.84 254.448 64.324 Z M 202.235 50.404 C 198.966 48.852 194.686 49.606 189.212 55.126 C 179.673 64.745 174.338 78.854 171.796 91.999 C 184.077 85.999 192.97 78.519 198.5 71.4 C 201.613 67.393 210.197 54.182 202.235 50.404 Z" fill="currentColor" fill-rule="evenodd"/>
  <path d="M 303.604 3.951 C 304.632 0.911 307.932 -0.721 310.972 0.308 C 314.013 1.337 315.644 4.636 314.616 7.677 C 305.247 35.376 297.225 74.022 291.623 116.37 C 302.013 98.931 314.171 77.049 332.364 66.579 C 340.11 62.121 349.291 61.576 356.323 67.725 C 365.937 76.134 361.498 90.78 354.381 99.159 C 346.788 108.098 333.718 114.956 315.464 115.432 C 317.163 122.266 318.824 131.746 324.759 136.418 C 331.613 141.813 343.234 136.524 349.152 132.227 C 351.75 130.341 355.385 130.917 357.271 133.515 C 359.157 136.113 358.58 139.748 355.983 141.634 C 345.626 149.154 328.759 154.361 317.568 145.552 C 309.337 139.073 306.544 127.782 304.142 118.121 C 297.855 128.426 292.149 138.759 287.592 146.996 C 286.254 149.412 283.401 150.554 280.766 149.728 C 278.131 148.901 276.442 146.335 276.724 143.588 C 282.238 89.942 291.783 38.9 303.604 3.951 Z M 338.162 76.655 C 327.646 82.707 320.074 93.974 313.331 103.833 C 329.833 103.864 340.19 97.909 345.521 91.633 C 348.216 88.46 353.034 80.293 348.67 76.476 C 345.436 73.648 341.589 74.683 338.162 76.655 Z" fill="currentColor" fill-rule="evenodd"/>
  <path d="M 443.2 62.614 C 446.408 62.526 449.081 65.055 449.169 68.264 C 449.34 76.237 448.868 84.246 448.175 92.183 C 447.884 95.516 447.509 99.122 447.032 102.944 C 449.192 99.302 451.418 95.724 453.675 92.305 C 459.046 84.168 464.762 76.67 470.357 71.329 C 475.355 66.56 482.104 61.606 489.44 62.929 C 506.96 66.091 504.437 90.54 502.356 103.239 C 499.557 120.328 493.2 138.882 489.154 146.82 C 487.696 149.681 484.196 150.817 481.336 149.36 C 478.476 147.902 477.339 144.402 478.797 141.542 C 482.216 134.832 488.247 117.456 490.884 101.359 C 491.675 96.529 495.647 75.863 487.375 74.37 C 478.626 72.792 466.861 93.43 463.377 98.709 C 453.057 114.343 443.314 133.638 437.873 146.453 C 436.666 149.297 433.444 150.7 430.539 149.646 C 427.635 148.591 426.063 145.448 426.961 142.492 C 432.733 123.493 435.389 104.976 436.594 91.172 C 437.26 83.549 437.548 75.932 437.548 68.285 C 437.619 65.211 440.091 62.7 443.2 62.614 Z" fill="currentColor" fill-rule="nonzero"/>
  <path d="M 412.367 65.359 C 425.895 73.991 417.988 91.439 410.782 101.366 C 402.636 112.587 389.698 124.151 375.888 132.079 C 376.997 134.665 378.688 136.38 380.907 137.385 C 395.068 143.803 409.921 122.167 415.928 112.975 C 417.685 110.288 421.287 109.533 423.974 111.289 C 426.661 113.045 427.415 116.647 425.659 119.334 C 415.877 134.303 396.8 157.352 376.108 147.974 C 368.446 144.502 364.624 137.63 363.321 130.189 C 360.521 114.187 368.016 96.554 376.681 83.483 C 383.616 73.022 398.357 56.42 412.367 65.359 Z M 406.114 75.159 C 399.335 70.834 389.069 85.834 386.37 89.906 C 380.61 98.595 376.089 108.733 374.745 119.155 C 385.4 112.235 395.125 103.145 401.374 94.536 C 403.966 90.966 412.42 79.183 406.114 75.159 Z" fill="currentColor" fill-rule="evenodd"/>
  <path d="M 601.561 12.876 C 615.364 16.189 613.102 34.343 610.724 44.624 C 603.869 74.267 586.982 104.017 566.789 126.684 C 567.153 129.906 567.62 135.707 570.668 137.55 C 574.776 140.031 580.799 136.886 584.389 134.849 C 590.576 131.339 596.523 126.052 599.964 122.336 C 602.145 119.98 605.822 119.839 608.178 122.02 C 610.533 124.201 610.675 127.879 608.494 130.234 C 604.482 134.567 597.621 140.708 590.126 144.96 C 582.547 149.26 572.736 152.383 564.655 147.499 C 560.638 145.071 558.324 140.882 556.956 136.541 C 545.405 146.702 531.375 153.83 518.322 147.604 C 506.817 142.116 505.717 127.504 507.422 116.442 C 509.341 103.988 515.332 90.091 523.901 80.017 C 531.236 71.394 542.592 62.601 554.596 63.438 C 557.722 63.657 560.683 64.635 563.172 66.44 C 566.959 53.153 571.796 40.478 577.147 30.899 C 581.848 22.483 590.173 10.142 601.561 12.876 Z M 553.787 75.036 C 545.684 74.471 537.555 81.907 532.756 87.549 C 525.673 95.876 520.525 107.742 518.911 118.212 C 518.077 123.63 517.093 134.137 523.327 137.111 C 534.702 142.537 547.435 130.15 554.834 122.489 C 554.384 110.706 555.967 98.851 558.192 87.308 C 558.806 83.32 559.553 75.438 553.787 75.036 Z M 598.848 24.18 C 594.313 23.091 588.829 33.824 587.297 36.568 C 575.403 57.861 569.122 83.858 566.921 108.05 C 581.335 88.557 593.917 65.703 599.398 42.005 C 599.982 39.477 603.541 25.305 598.848 24.18 Z" fill="currentColor" fill-rule="evenodd"/>
</svg>
